# xmcd
#
# Track frame offsets:
#	150
#	23580
#	43286
#	61216
#	79879
#	99331
#	122652
#	141598
#	162432
#	181755
#	204504
#	223830
#
# Disc length: 3323 seconds
#
# Revision: 0
# Processed by: cddbd v1.4PL0 Copyright (c) Steve Scherf et al.
# Submitted via: dBpowerAMP V4.0
#
DISCID=aa0cf90c
DTITLE=Impromp2 - The Definition of Love
DYEAR=2003
DGENRE=R&B
TTITLE0=When Will Things Change
TTITLE1=The Definition Of Love
TTITLE2=I'll Do Whatever
TTITLE3=Drama
TTITLE4=Mocha Soul
TTITLE5=Is It Cool?
TTITLE6=Without You
TTITLE7=Bring It Back
TTITLE8=All The Woman
TTITLE9=Makin Love
TTITLE10=Who Am I?
TTITLE11=Change Comin
EXTD=
EXTT0=
EXTT1=
EXTT2=
EXTT3=
EXTT4=
EXTT5=
EXTT6=
EXTT7=
EXTT8=
EXTT9=
EXTT10=
EXTT11=
PLAYORDER=
